<svg width="1440" height="712" viewBox="0 0 1440 712" fill="none" xmlns="http://www.w3.org/2000/svg">
<rect width="1440" height="712" fill="white" fill-opacity="0.39"/>
<circle cx="1317.5" cy="-38.5" r="224.5" fill="#F5F3FF"/>
<circle cx="15" cy="543" r="5" fill="#7B0068" fill-opacity="0.5"/>
<circle cx="15" cy="522" r="5" fill="#7B0068" fill-opacity="0.5"/>
<circle cx="36" cy="522" r="5" fill="#7B0068" fill-opacity="0.5"/>
<circle cx="36" cy="543" r="5" fill="#7B0068" fill-opacity="0.5"/>
<circle cx="57" cy="543" r="5" fill="#7B0068" fill-opacity="0.5"/>
<circle cx="78" cy="543" r="5" fill="#7B0068" fill-opacity="0.5"/>
<circle cx="99" cy="543" r="5" fill="#7B0068" fill-opacity="0.5"/>
<circle cx="36" cy="564" r="5" fill="#7B0068" fill-opacity="0.5"/>
<circle cx="57" cy="564" r="5" fill="#7B0068" fill-opacity="0.5"/>
<circle cx="78" cy="564" r="5" fill="#7B0068" fill-opacity="0.5"/>
<circle cx="99" cy="564" r="5" fill="#7B0068" fill-opacity="0.5"/>
<circle cx="36" cy="585" r="5" fill="#7B0068" fill-opacity="0.5"/>
<circle cx="57" cy="585" r="5" fill="#7B0068" fill-opacity="0.5"/>
<circle cx="78" cy="585" r="5" fill="#7B0068" fill-opacity="0.5"/>
<circle cx="99" cy="585" r="5" fill="#7B0068" fill-opacity="0.5"/>
<circle cx="57" cy="522" r="5" fill="#7B0068" fill-opacity="0.5"/>
<circle cx="78" cy="522" r="5" fill="#7B0068" fill-opacity="0.5"/>
<circle cx="99" cy="522" r="5" fill="#7B0068" fill-opacity="0.5"/>
<circle cx="15" cy="585" r="5" fill="#7B0068" fill-opacity="0.5"/>
<circle cx="15" cy="564" r="5" fill="#7B0068" fill-opacity="0.5"/>
<circle cx="1229" cy="139" r="5" fill="#C4C4C4" fill-opacity="0.3"/>
<circle cx="1229" cy="118" r="5" fill="#C4C4C4" fill-opacity="0.3"/>
<circle cx="1250" cy="118" r="5" fill="#C4C4C4" fill-opacity="0.3"/>
<circle cx="1250" cy="139" r="5" fill="#C4C4C4" fill-opacity="0.3"/>
<circle cx="1271" cy="139" r="5" fill="#C4C4C4" fill-opacity="0.3"/>
<circle cx="1292" cy="139" r="5" fill="#C4C4C4" fill-opacity="0.3"/>
<circle cx="1313" cy="139" r="5" fill="#C4C4C4" fill-opacity="0.3"/>
<circle cx="1250" cy="160" r="5" fill="#C4C4C4" fill-opacity="0.3"/>
<circle cx="1271" cy="160" r="5" fill="#C4C4C4" fill-opacity="0.3"/>
<circle cx="1292" cy="160" r="5" fill="#C4C4C4" fill-opacity="0.3"/>
<circle cx="1313" cy="160" r="5" fill="#C4C4C4" fill-opacity="0.3"/>
<circle cx="1250" cy="181" r="5" fill="#C4C4C4" fill-opacity="0.3"/>
<circle cx="1271" cy="181" r="5" fill="#C4C4C4" fill-opacity="0.3"/>
<circle cx="1292" cy="181" r="5" fill="#C4C4C4" fill-opacity="0.3"/>
<circle cx="1313" cy="181" r="5" fill="#C4C4C4" fill-opacity="0.3"/>
<circle cx="1271" cy="118" r="5" fill="#C4C4C4" fill-opacity="0.3"/>
<circle cx="1292" cy="118" r="5" fill="#C4C4C4" fill-opacity="0.3"/>
<circle cx="1313" cy="118" r="5" fill="#C4C4C4" fill-opacity="0.3"/>
<circle cx="1229" cy="181" r="5" fill="#C4C4C4" fill-opacity="0.3"/>
<circle cx="1229" cy="160" r="5" fill="#C4C4C4" fill-opacity="0.3"/>
<circle cx="838" cy="144" r="5" fill="#C4C4C4" fill-opacity="0.3"/>
<circle cx="838" cy="123" r="5" fill="#C4C4C4" fill-opacity="0.3"/>
<circle cx="859" cy="123" r="5" fill="#C4C4C4" fill-opacity="0.3"/>
<circle cx="859" cy="144" r="5" fill="#C4C4C4" fill-opacity="0.3"/>
<circle cx="880" cy="144" r="5" fill="#C4C4C4" fill-opacity="0.3"/>
<circle cx="901" cy="144" r="5" fill="#C4C4C4" fill-opacity="0.3"/>
<circle cx="922" cy="144" r="5" fill="#C4C4C4" fill-opacity="0.3"/>
<circle cx="859" cy="165" r="5" fill="#C4C4C4" fill-opacity="0.3"/>
<circle cx="880" cy="165" r="5" fill="#C4C4C4" fill-opacity="0.3"/>
<circle cx="901" cy="165" r="5" fill="#C4C4C4" fill-opacity="0.3"/>
<circle cx="922" cy="165" r="5" fill="#C4C4C4" fill-opacity="0.3"/>
<circle cx="859" cy="186" r="5" fill="#C4C4C4" fill-opacity="0.3"/>
<circle cx="880" cy="186" r="5" fill="#C4C4C4" fill-opacity="0.3"/>
<circle cx="901" cy="186" r="5" fill="#C4C4C4" fill-opacity="0.3"/>
<circle cx="922" cy="186" r="5" fill="#C4C4C4" fill-opacity="0.3"/>
<circle cx="880" cy="123" r="5" fill="#C4C4C4" fill-opacity="0.3"/>
<circle cx="901" cy="123" r="5" fill="#C4C4C4" fill-opacity="0.3"/>
<circle cx="922" cy="123" r="5" fill="#C4C4C4" fill-opacity="0.3"/>
<circle cx="838" cy="186" r="5" fill="#C4C4C4" fill-opacity="0.3"/>
<circle cx="838" cy="165" r="5" fill="#C4C4C4" fill-opacity="0.3"/>
<circle cx="725" cy="611" r="5" fill="#7B0068" fill-opacity="0.5"/>
<circle cx="725" cy="590" r="5" fill="#7B0068" fill-opacity="0.5"/>
<circle cx="746" cy="590" r="5" fill="#7B0068" fill-opacity="0.5"/>
<circle cx="746" cy="611" r="5" fill="#7B0068" fill-opacity="0.5"/>
<circle cx="767" cy="611" r="5" fill="#7B0068" fill-opacity="0.5"/>
<circle cx="788" cy="611" r="5" fill="#7B0068" fill-opacity="0.5"/>
<circle cx="809" cy="611" r="5" fill="#7B0068" fill-opacity="0.5"/>
<circle cx="746" cy="632" r="5" fill="#7B0068" fill-opacity="0.5"/>
<circle cx="767" cy="632" r="5" fill="#7B0068" fill-opacity="0.5"/>
<circle cx="788" cy="632" r="5" fill="#7B0068" fill-opacity="0.5"/>
<circle cx="809" cy="632" r="5" fill="#7B0068" fill-opacity="0.5"/>
<circle cx="746" cy="653" r="5" fill="#7B0068" fill-opacity="0.5"/>
<circle cx="767" cy="653" r="5" fill="#7B0068" fill-opacity="0.5"/>
<circle cx="788" cy="653" r="5" fill="#7B0068" fill-opacity="0.5"/>
<circle cx="809" cy="653" r="5" fill="#7B0068" fill-opacity="0.5"/>
<circle cx="767" cy="590" r="5" fill="#7B0068" fill-opacity="0.5"/>
<circle cx="788" cy="590" r="5" fill="#7B0068" fill-opacity="0.5"/>
<circle cx="809" cy="590" r="5" fill="#7B0068" fill-opacity="0.5"/>
<circle cx="725" cy="653" r="5" fill="#7B0068" fill-opacity="0.5"/>
<circle cx="725" cy="632" r="5" fill="#7B0068" fill-opacity="0.5"/>
<circle cx="-101.5" cy="151.5" r="164.5" fill="#F5F3FF"/>
</svg>
