<svg width="1440" height="618" viewBox="0 0 1440 618" fill="none" xmlns="http://www.w3.org/2000/svg">
<rect width="1440" height="618" fill="#F7F3FF"/>
<g filter="url(#filter0_d_23_8)">
<path d="M633.896 190.521C637.997 78.6678 519.426 68.5673 459.628 77.4986C403.925 77.4986 305.888 132.061 263.832 159.342C232.566 169.735 186.026 222.674 249.993 351.285C313.96 479.897 470.733 448.718 541.124 417.053C570.34 388.147 629.796 302.374 633.896 190.521Z" fill="#7B0068" fill-opacity="0.84" shape-rendering="crispEdges"/>
<path d="M633.896 190.521C637.997 78.6678 519.426 68.5673 459.628 77.4986C403.925 77.4986 305.888 132.061 263.832 159.342C232.566 169.735 186.026 222.674 249.993 351.285C313.96 479.897 470.733 448.718 541.124 417.053C570.34 388.147 629.796 302.374 633.896 190.521Z" stroke="#120E48" stroke-width="2" shape-rendering="crispEdges"/>
</g>
<g clip-path="url(#clip0_23_8)">
<path d="M212.442 191.095H424.258V260.648H416.234V278.839L398.048 260.648H212.442V191.095Z" fill="#E6E6E6"/>
<path d="M418.374 197.868H218.326V253.511H418.374V197.868Z" fill="white"/>
<path d="M330.731 214.113H234.413V217.037H330.731V214.113Z" fill="#6C63FF"/>
<path d="M402.287 224.228H234.413V227.151H402.287V224.228Z" fill="#E6E6E6"/>
<path d="M402.122 234.342H234.413V237.266H402.122V234.342Z" fill="#E6E6E6"/>
<path d="M386.815 284.189H175V353.743H183.023V371.934L201.209 353.743H386.815V284.189Z" fill="#E6E6E6"/>
<path d="M380.932 290.963H180.884V346.606H380.932V290.963Z" fill="white"/>
<path d="M294.893 307.743H198.575V310.667H294.893V307.743Z" fill="#6C63FF"/>
<path d="M366.449 317.858H198.575V320.781H366.449V317.858Z" fill="#E6E6E6"/>
<path d="M366.285 327.972H198.575V330.896H366.285V327.972Z" fill="#E6E6E6"/>
<path d="M386.815 98H175V167.553H183.023V185.745L201.209 167.553H386.815V98Z" fill="#E6E6E6"/>
<path d="M380.932 104.773H180.884V160.416H380.932V104.773Z" fill="white"/>
<path d="M294.893 121.554H198.575V124.477H294.893V121.554Z" fill="#6C63FF"/>
<path d="M366.449 131.668H198.575V134.592H366.449V131.668Z" fill="#E6E6E6"/>
<path d="M366.285 141.782H198.575V144.706H366.285V141.782Z" fill="#E6E6E6"/>
<path d="M547.141 479.113L538.423 479.113L534.276 445.477L547.143 445.478L547.141 479.113Z" fill="#FFB8B8"/>
<path d="M549.364 487.566L521.254 487.565V487.209C521.254 484.307 522.407 481.523 524.459 479.471C526.511 477.419 529.294 476.266 532.195 476.265H532.196L549.365 476.266L549.364 487.566Z" fill="#2F2E41"/>
<path d="M534.883 453.824L526.771 457.017L510.598 427.238L522.571 422.525L534.883 453.824Z" fill="#FFB8B8"/>
<path d="M540.047 460.876L513.889 471.171L513.759 470.84C512.696 468.139 512.75 465.127 513.908 462.466C515.066 459.804 517.233 457.712 519.933 456.649L519.934 456.649L535.911 450.36L540.047 460.876Z" fill="#2F2E41"/>
<path d="M532.227 468.184L535.003 366.14L522.65 409.886L531.575 440.239L516.768 452.828L501.675 404.659L501.648 404.575L516.65 325.259L561.018 323.112L561.335 323.096L561.386 323.41C561.429 323.674 565.622 350.008 562.096 369.053C558.584 388.025 550.096 468.506 550.011 469.318L549.975 469.664L532.227 468.184Z" fill="#2F2E41"/>
<path d="M518.948 331.621L518.698 331.521L526.931 255.965L527.172 255.905C535.54 253.812 546.814 253.995 552.79 254.29C553.696 254.337 554.558 254.694 555.231 255.302C555.905 255.91 556.348 256.732 556.487 257.628L566.386 322.843L566.304 322.959C559.461 332.738 549.003 335.397 539.653 335.397C532.589 335.306 525.59 334.03 518.948 331.621Z" fill="#6C63FF"/>
<path d="M558.159 353.695L557.861 353.668L552.602 254.095L568.582 257.705C570.328 258.105 571.863 259.14 572.888 260.609C573.913 262.078 574.356 263.875 574.129 265.652L572.057 282.204L572.767 311.322C573.262 313.11 581.353 342.739 576.858 350.459C576.631 350.897 576.316 351.283 575.933 351.593C575.55 351.904 575.107 352.132 574.632 352.263C570.316 353.3 565.892 353.818 561.453 353.806C559.436 353.805 558.19 353.698 558.159 353.695Z" fill="#3F3D56"/>
<path d="M511.099 354.37C510.322 354.022 509.634 353.502 509.086 352.851C508.537 352.199 508.143 351.432 507.933 350.607C506.892 346.414 510.407 341.14 510.914 340.408L515.166 300.005L508.842 262.681C508.734 262.043 508.757 261.389 508.91 260.76C509.063 260.131 509.343 259.54 509.733 259.023C510.123 258.505 510.614 258.073 511.176 257.753C511.738 257.432 512.36 257.23 513.004 257.158L531.018 255.149L530.104 293.545C537.835 319.686 520.997 357.377 520.826 357.755L520.732 357.964H520.502C520.412 357.964 518.204 357.923 511.099 354.37Z" fill="#3F3D56"/>
<path d="M548.116 245.34C556.58 240.712 559.69 230.097 555.064 221.631C550.437 213.165 539.825 210.054 531.361 214.682C522.897 219.31 519.787 229.924 524.414 238.39C529.04 246.856 539.652 249.968 548.116 245.34Z" fill="#FFB8B8"/>
<path d="M559.737 335.675C559.58 334.712 559.636 333.727 559.901 332.789C560.166 331.85 560.633 330.981 561.27 330.243C561.906 329.505 562.697 328.915 563.586 328.516C564.476 328.116 565.442 327.917 566.416 327.931L572.462 313.94L581.858 315.541L573.043 335.179C572.91 336.815 572.182 338.346 570.997 339.481C569.811 340.616 568.25 341.277 566.61 341.338C564.97 341.399 563.365 340.856 562.098 339.813C560.831 338.769 559.991 337.296 559.737 335.675V335.675Z" fill="#FFB8B8"/>
<path d="M568.249 322.855L573.241 292.894L564.714 278.678L566.887 258.397L567.37 258.276C568.987 257.876 570.693 258.045 572.2 258.754C573.707 259.463 574.925 260.669 575.649 262.169L589.579 291.247L589.634 291.363L579.517 331.12L568.249 322.855Z" fill="#3F3D56"/>
<path d="M551.186 244.098C551.585 244.214 553.261 242.32 555.096 240.05C557.025 237.684 558.416 234.928 559.175 231.971C559.933 229.014 560.041 225.928 559.49 222.925C559.464 222.79 559.439 222.662 559.414 222.541C558.806 219.648 556.046 216.983 553.155 217.596C553.373 215.032 551.647 212.618 549.46 211.265C547.272 209.912 544.68 209.41 542.153 208.933C539.269 208.389 536.35 207.842 533.422 208.028C530.598 208.202 527.862 209.076 525.46 210.572C522.543 212.491 520.296 215.272 519.031 218.527C517.766 221.782 517.545 225.351 518.401 228.737C522.081 224.557 526.441 220.01 532.744 221.822C534.171 222.247 535.503 222.944 536.666 223.874C540.497 226.883 542.423 231.315 544.286 235.646C545.216 233.276 548.668 232.384 550.63 234.007C551.889 235.049 552.407 236.781 552.359 238.415C552.228 240.046 551.851 241.649 551.241 243.168" fill="#2F2E41"/>
<path d="M548.934 309.364H548.112V306.13C548.111 305.172 547.73 304.253 547.052 303.575C546.374 302.897 545.455 302.516 544.497 302.515H534.197C533.238 302.516 532.319 302.897 531.642 303.575C530.964 304.253 530.583 305.172 530.582 306.13V328.489C530.583 329.447 530.964 330.367 531.642 331.044C532.319 331.722 533.238 332.104 534.197 332.105H544.497C545.455 332.104 546.374 331.722 547.052 331.044C547.73 330.367 548.111 329.447 548.112 328.489V313.2H548.934V309.364Z" fill="#2F2E41"/>
<path d="M539.621 315.392C540.831 315.392 541.812 314.41 541.812 313.2C541.812 311.989 540.831 311.008 539.621 311.008C538.411 311.008 537.429 311.989 537.429 313.2C537.429 314.41 538.411 315.392 539.621 315.392Z" fill="white"/>
<path d="M541.409 321.934C540.992 321.052 540.387 320.273 539.637 319.651C538.886 319.028 538.008 318.578 537.065 318.332C536.122 318.086 535.136 318.049 534.177 318.225C533.219 318.401 532.31 318.786 531.516 319.351L518.599 311.266L511.772 317.919L530.174 329.08C531.211 330.352 532.68 331.199 534.3 331.46C535.92 331.722 537.58 331.38 538.965 330.499C540.35 329.618 541.363 328.259 541.814 326.681C542.264 325.102 542.12 323.413 541.409 321.934V321.934Z" fill="#FFB8B8"/>
<path d="M495.21 306.531L507.03 261.869C507.341 260.715 508.072 259.719 509.081 259.078C510.089 258.437 511.301 258.198 512.478 258.406L516.542 259.145L520.872 282.966L512.065 303.046L527.995 312.612L525.755 330.536L495.21 306.531Z" fill="#3F3D56"/>
<path d="M629.452 488H420.733C420.588 488 420.449 487.942 420.346 487.84C420.243 487.737 420.185 487.597 420.185 487.452C420.185 487.307 420.243 487.167 420.346 487.065C420.449 486.962 420.588 486.904 420.733 486.904H629.452C629.597 486.904 629.737 486.962 629.84 487.065C629.942 487.167 630 487.307 630 487.452C630 487.597 629.942 487.737 629.84 487.84C629.737 487.942 629.597 488 629.452 488Z" fill="#3F3D56"/>
</g>
<line x1="470" y1="43.5" x2="970" y2="43.5" stroke="#120E48" stroke-width="5"/>
<defs>
<filter id="filter0_d_23_8" x="193" y="47.0001" width="486" height="440" filterUnits="userSpaceOnUse" color-interpolation-filters="sRGB">
<feFlood flood-opacity="0" result="BackgroundImageFix"/>
<feColorMatrix in="SourceAlpha" type="matrix" values="0 0 0 0 0 0 0 0 0 0 0 0 0 0 0 0 0 0 127 0" result="hardAlpha"/>
<feOffset dx="10" dy="7"/>
<feGaussianBlur stdDeviation="17"/>
<feComposite in2="hardAlpha" operator="out"/>
<feColorMatrix type="matrix" values="0 0 0 0 0 0 0 0 0 0 0 0 0 0 0 0 0 0 0.43 0"/>
<feBlend mode="normal" in2="BackgroundImageFix" result="effect1_dropShadow_23_8"/>
<feBlend mode="normal" in="SourceGraphic" in2="effect1_dropShadow_23_8" result="shape"/>
</filter>
<clipPath id="clip0_23_8">
<rect width="455" height="390" fill="white" transform="translate(175 98)"/>
</clipPath>
</defs>
</svg>
